<?xml version="1.0" encoding="utf-8" standalone="no"?>
<!DOCTYPE svg PUBLIC "-//W3C//DTD SVG 1.1//EN"
  "http://www.w3.org/Graphics/SVG/1.1/DTD/svg11.dtd">
<!-- Created with matplotlib (https://matplotlib.org/) -->
<svg height="555.12pt" version="1.1" viewBox="0 0 1146.24 555.12" width="1146.24pt" xmlns="http://www.w3.org/2000/svg" xmlns:xlink="http://www.w3.org/1999/xlink">
 <defs>
  <style type="text/css">
*{stroke-linecap:butt;stroke-linejoin:round;}
  </style>
 </defs>
 <g id="figure_1">
  <g id="patch_1">
   <path d="M 0 555.12 
L 1146.24 555.12 
L 1146.24 0 
L 0 0 
z
" style="fill:#ffffff;"/>
  </g>
  <g id="axes_1">
   <g id="patch_2">
    <path d="M 143.28 494.0568 
L 1031.616 494.0568 
L 1031.616 66.6144 
L 143.28 66.6144 
z
" style="fill:#ffffff;"/>
   </g>
   <g id="matplotlib.axis_1">
    <g id="xtick_1">
     <g id="line2d_1">
      <defs>
       <path d="M 0 0 
L 0 3.5 
" id="mdd6c5fda34" style="stroke:#000000;stroke-width:0.8;"/>
      </defs>
      <g>
       <use style="stroke:#000000;stroke-width:0.8;" x="229.369653" xlink:href="#mdd6c5fda34" y="494.0568"/>
      </g>
     </g>
     <g id="text_1">
      <!-- 0.2 -->
      <defs>
       <path d="M 31.78125 66.40625 
Q 24.171875 66.40625 20.328125 58.90625 
Q 16.5 51.421875 16.5 36.375 
Q 16.5 21.390625 20.328125 13.890625 
Q 24.171875 6.390625 31.78125 6.390625 
Q 39.453125 6.390625 43.28125 13.890625 
Q 47.125 21.390625 47.125 36.375 
Q 47.125 51.421875 43.28125 58.90625 
Q 39.453125 66.40625 31.78125 66.40625 
z
M 31.78125 74.21875 
Q 44.046875 74.21875 50.515625 64.515625 
Q 56.984375 54.828125 56.984375 36.375 
Q 56.984375 17.96875 50.515625 8.265625 
Q 44.046875 -1.421875 31.78125 -1.421875 
Q 19.53125 -1.421875 13.0625 8.265625 
Q 6.59375 17.96875 6.59375 36.375 
Q 6.59375 54.828125 13.0625 64.515625 
Q 19.53125 74.21875 31.78125 74.21875 
z
" id="DejaVuSans-48"/>
       <path d="M 10.6875 12.40625 
L 21 12.40625 
L 21 0 
L 10.6875 0 
z
" id="DejaVuSans-46"/>
       <path d="M 19.1875 8.296875 
L 53.609375 8.296875 
L 53.609375 0 
L 7.328125 0 
L 7.328125 8.296875 
Q 12.9375 14.109375 22.625 23.890625 
Q 32.328125 33.6875 34.8125 36.53125 
Q 39.546875 41.84375 41.421875 45.53125 
Q 43.3125 49.21875 43.3125 52.78125 
Q 43.3125 58.59375 39.234375 62.25 
Q 35.15625 65.921875 28.609375 65.921875 
Q 23.96875 65.921875 18.8125 64.3125 
Q 13.671875 62.703125 7.8125 59.421875 
L 7.8125 69.390625 
Q 13.765625 71.78125 18.9375 73 
Q 24.125 74.21875 28.421875 74.21875 
Q 39.75 74.21875 46.484375 68.546875 
Q 53.21875 62.890625 53.21875 53.421875 
Q 53.21875 48.921875 51.53125 44.890625 
Q 49.859375 40.875 45.40625 35.40625 
Q 44.1875 33.984375 37.640625 27.21875 
Q 31.109375 20.453125 19.1875 8.296875 
z
" id="DejaVuSans-50"/>
      </defs>
      <g transform="translate(221.41809 508.655237)scale(0.1 -0.1)">
       <use xlink:href="#DejaVuSans-48"/>
       <use x="63.623047" xlink:href="#DejaVuSans-46"/>
       <use x="95.410156" xlink:href="#DejaVuSans-50"/>
      </g>
     </g>
    </g>
    <g id="xtick_2">
     <g id="line2d_2">
      <g>
       <use style="stroke:#000000;stroke-width:0.8;" x="347.128984" xlink:href="#mdd6c5fda34" y="494.0568"/>
      </g>
     </g>
     <g id="text_2">
      <!-- 0.3 -->
      <defs>
       <path d="M 40.578125 39.3125 
Q 47.65625 37.796875 51.625 33 
Q 55.609375 28.21875 55.609375 21.1875 
Q 55.609375 10.40625 48.1875 4.484375 
Q 40.765625 -1.421875 27.09375 -1.421875 
Q 22.515625 -1.421875 17.65625 -0.515625 
Q 12.796875 0.390625 7.625 2.203125 
L 7.625 11.71875 
Q 11.71875 9.328125 16.59375 8.109375 
Q 21.484375 6.890625 26.8125 6.890625 
Q 36.078125 6.890625 40.9375 10.546875 
Q 45.796875 14.203125 45.796875 21.1875 
Q 45.796875 27.640625 41.28125 31.265625 
Q 36.765625 34.90625 28.71875 34.90625 
L 20.21875 34.90625 
L 20.21875 43.015625 
L 29.109375 43.015625 
Q 36.375 43.015625 40.234375 45.921875 
Q 44.09375 48.828125 44.09375 54.296875 
Q 44.09375 59.90625 40.109375 62.90625 
Q 36.140625 65.921875 28.71875 65.921875 
Q 24.65625 65.921875 20.015625 65.03125 
Q 15.375 64.15625 9.8125 62.3125 
L 9.8125 71.09375 
Q 15.4375 72.65625 20.34375 73.4375 
Q 25.25 74.21875 29.59375 74.21875 
Q 40.828125 74.21875 47.359375 69.109375 
Q 53.90625 64.015625 53.90625 55.328125 
Q 53.90625 49.265625 50.4375 45.09375 
Q 46.96875 40.921875 40.578125 39.3125 
z
" id="DejaVuSans-51"/>
      </defs>
      <g transform="translate(339.177421 508.655237)scale(0.1 -0.1)">
       <use xlink:href="#DejaVuSans-48"/>
       <use x="63.623047" xlink:href="#DejaVuSans-46"/>
       <use x="95.410156" xlink:href="#DejaVuSans-51"/>
      </g>
     </g>
    </g>
    <g id="xtick_3">
     <g id="line2d_3">
      <g>
       <use style="stroke:#000000;stroke-width:0.8;" x="464.888315" xlink:href="#mdd6c5fda34" y="494.0568"/>
      </g>
     </g>
     <g id="text_3">
      <!-- 0.4 -->
      <defs>
       <path d="M 37.796875 64.3125 
L 12.890625 25.390625 
L 37.796875 25.390625 
z
M 35.203125 72.90625 
L 47.609375 72.90625 
L 47.609375 25.390625 
L 58.015625 25.390625 
L 58.015625 17.1875 
L 47.609375 17.1875 
L 47.609375 0 
L 37.796875 0 
L 37.796875 17.1875 
L 4.890625 17.1875 
L 4.890625 26.703125 
z
" id="DejaVuSans-52"/>
      </defs>
      <g transform="translate(456.936753 508.655237)scale(0.1 -0.1)">
       <use xlink:href="#DejaVuSans-48"/>
       <use x="63.623047" xlink:href="#DejaVuSans-46"/>
       <use x="95.410156" xlink:href="#DejaVuSans-52"/>
      </g>
     </g>
    </g>
    <g id="xtick_4">
     <g id="line2d_4">
      <g>
       <use style="stroke:#000000;stroke-width:0.8;" x="582.647647" xlink:href="#mdd6c5fda34" y="494.0568"/>
      </g>
     </g>
     <g id="text_4">
      <!-- 0.5 -->
      <defs>
       <path d="M 10.796875 72.90625 
L 49.515625 72.90625 
L 49.515625 64.59375 
L 19.828125 64.59375 
L 19.828125 46.734375 
Q 21.96875 47.46875 24.109375 47.828125 
Q 26.265625 48.1875 28.421875 48.1875 
Q 40.625 48.1875 47.75 41.5 
Q 54.890625 34.8125 54.890625 23.390625 
Q 54.890625 11.625 47.5625 5.09375 
Q 40.234375 -1.421875 26.90625 -1.421875 
Q 22.3125 -1.421875 17.546875 -0.640625 
Q 12.796875 0.140625 7.71875 1.703125 
L 7.71875 11.625 
Q 12.109375 9.234375 16.796875 8.0625 
Q 21.484375 6.890625 26.703125 6.890625 
Q 35.15625 6.890625 40.078125 11.328125 
Q 45.015625 15.765625 45.015625 23.390625 
Q 45.015625 31 40.078125 35.4375 
Q 35.15625 39.890625 26.703125 39.890625 
Q 22.75 39.890625 18.8125 39.015625 
Q 14.890625 38.140625 10.796875 36.28125 
z
" id="DejaVuSans-53"/>
      </defs>
      <g transform="translate(574.696084 508.655237)scale(0.1 -0.1)">
       <use xlink:href="#DejaVuSans-48"/>
       <use x="63.623047" xlink:href="#DejaVuSans-46"/>
       <use x="95.410156" xlink:href="#DejaVuSans-53"/>
      </g>
     </g>
    </g>
    <g id="xtick_5">
     <g id="line2d_5">
      <g>
       <use style="stroke:#000000;stroke-width:0.8;" x="700.406978" xlink:href="#mdd6c5fda34" y="494.0568"/>
      </g>
     </g>
     <g id="text_5">
      <!-- 0.6 -->
      <defs>
       <path d="M 33.015625 40.375 
Q 26.375 40.375 22.484375 35.828125 
Q 18.609375 31.296875 18.609375 23.390625 
Q 18.609375 15.53125 22.484375 10.953125 
Q 26.375 6.390625 33.015625 6.390625 
Q 39.65625 6.390625 43.53125 10.953125 
Q 47.40625 15.53125 47.40625 23.390625 
Q 47.40625 31.296875 43.53125 35.828125 
Q 39.65625 40.375 33.015625 40.375 
z
M 52.59375 71.296875 
L 52.59375 62.3125 
Q 48.875 64.0625 45.09375 64.984375 
Q 41.3125 65.921875 37.59375 65.921875 
Q 27.828125 65.921875 22.671875 59.328125 
Q 17.53125 52.734375 16.796875 39.40625 
Q 19.671875 43.65625 24.015625 45.921875 
Q 28.375 48.1875 33.59375 48.1875 
Q 44.578125 48.1875 50.953125 41.515625 
Q 57.328125 34.859375 57.328125 23.390625 
Q 57.328125 12.15625 50.6875 5.359375 
Q 44.046875 -1.421875 33.015625 -1.421875 
Q 20.359375 -1.421875 13.671875 8.265625 
Q 6.984375 17.96875 6.984375 36.375 
Q 6.984375 53.65625 15.1875 63.9375 
Q 23.390625 74.21875 37.203125 74.21875 
Q 40.921875 74.21875 44.703125 73.484375 
Q 48.484375 72.75 52.59375 71.296875 
z
" id="DejaVuSans-54"/>
      </defs>
      <g transform="translate(692.455416 508.655237)scale(0.1 -0.1)">
       <use xlink:href="#DejaVuSans-48"/>
       <use x="63.623047" xlink:href="#DejaVuSans-46"/>
       <use x="95.410156" xlink:href="#DejaVuSans-54"/>
      </g>
     </g>
    </g>
    <g id="xtick_6">
     <g id="line2d_6">
      <g>
       <use style="stroke:#000000;stroke-width:0.8;" x="818.16631" xlink:href="#mdd6c5fda34" y="494.0568"/>
      </g>
     </g>
     <g id="text_6">
      <!-- 0.7 -->
      <defs>
       <path d="M 8.203125 72.90625 
L 55.078125 72.90625 
L 55.078125 68.703125 
L 28.609375 0 
L 18.3125 0 
L 43.21875 64.59375 
L 8.203125 64.59375 
z
" id="DejaVuSans-55"/>
      </defs>
      <g transform="translate(810.214747 508.655237)scale(0.1 -0.1)">
       <use xlink:href="#DejaVuSans-48"/>
       <use x="63.623047" xlink:href="#DejaVuSans-46"/>
       <use x="95.410156" xlink:href="#DejaVuSans-55"/>
      </g>
     </g>
    </g>
    <g id="xtick_7">
     <g id="line2d_7">
      <g>
       <use style="stroke:#000000;stroke-width:0.8;" x="935.925641" xlink:href="#mdd6c5fda34" y="494.0568"/>
      </g>
     </g>
     <g id="text_7">
      <!-- 0.8 -->
      <defs>
       <path d="M 31.78125 34.625 
Q 24.75 34.625 20.71875 30.859375 
Q 16.703125 27.09375 16.703125 20.515625 
Q 16.703125 13.921875 20.71875 10.15625 
Q 24.75 6.390625 31.78125 6.390625 
Q 38.8125 6.390625 42.859375 10.171875 
Q 46.921875 13.96875 46.921875 20.515625 
Q 46.921875 27.09375 42.890625 30.859375 
Q 38.875 34.625 31.78125 34.625 
z
M 21.921875 38.8125 
Q 15.578125 40.375 12.03125 44.71875 
Q 8.5 49.078125 8.5 55.328125 
Q 8.5 64.0625 14.71875 69.140625 
Q 20.953125 74.21875 31.78125 74.21875 
Q 42.671875 74.21875 48.875 69.140625 
Q 55.078125 64.0625 55.078125 55.328125 
Q 55.078125 49.078125 51.53125 44.71875 
Q 48 40.375 41.703125 38.8125 
Q 48.828125 37.15625 52.796875 32.3125 
Q 56.78125 27.484375 56.78125 20.515625 
Q 56.78125 9.90625 50.3125 4.234375 
Q 43.84375 -1.421875 31.78125 -1.421875 
Q 19.734375 -1.421875 13.25 4.234375 
Q 6.78125 9.90625 6.78125 20.515625 
Q 6.78125 27.484375 10.78125 32.3125 
Q 14.796875 37.15625 21.921875 38.8125 
z
M 18.3125 54.390625 
Q 18.3125 48.734375 21.84375 45.5625 
Q 25.390625 42.390625 31.78125 42.390625 
Q 38.140625 42.390625 41.71875 45.5625 
Q 45.3125 48.734375 45.3125 54.390625 
Q 45.3125 60.0625 41.71875 63.234375 
Q 38.140625 66.40625 31.78125 66.40625 
Q 25.390625 66.40625 21.84375 63.234375 
Q 18.3125 60.0625 18.3125 54.390625 
z
" id="DejaVuSans-56"/>
      </defs>
      <g transform="translate(927.974078 508.655237)scale(0.1 -0.1)">
       <use xlink:href="#DejaVuSans-48"/>
       <use x="63.623047" xlink:href="#DejaVuSans-46"/>
       <use x="95.410156" xlink:href="#DejaVuSans-56"/>
      </g>
     </g>
    </g>
   </g>
   <g id="matplotlib.axis_2">
    <g id="ytick_1">
     <g id="line2d_8">
      <defs>
       <path d="M 0 0 
L -3.5 0 
" id="mbdd97ebdc5" style="stroke:#000000;stroke-width:0.8;"/>
      </defs>
      <g>
       <use style="stroke:#000000;stroke-width:0.8;" x="143.28" xlink:href="#mbdd97ebdc5" y="433.670714"/>
      </g>
     </g>
     <g id="text_8">
      <!-- −200 -->
      <defs>
       <path d="M 10.59375 35.5 
L 73.1875 35.5 
L 73.1875 27.203125 
L 10.59375 27.203125 
z
" id="DejaVuSans-8722"/>
      </defs>
      <g transform="translate(108.812813 437.469933)scale(0.1 -0.1)">
       <use xlink:href="#DejaVuSans-8722"/>
       <use x="83.789062" xlink:href="#DejaVuSans-50"/>
       <use x="147.412109" xlink:href="#DejaVuSans-48"/>
       <use x="211.035156" xlink:href="#DejaVuSans-48"/>
      </g>
     </g>
    </g>
    <g id="ytick_2">
     <g id="line2d_9">
      <g>
       <use style="stroke:#000000;stroke-width:0.8;" x="143.28" xlink:href="#mbdd97ebdc5" y="371.700306"/>
      </g>
     </g>
     <g id="text_9">
      <!-- 0 -->
      <g transform="translate(129.9175 375.499524)scale(0.1 -0.1)">
       <use xlink:href="#DejaVuSans-48"/>
      </g>
     </g>
    </g>
    <g id="ytick_3">
     <g id="line2d_10">
      <g>
       <use style="stroke:#000000;stroke-width:0.8;" x="143.28" xlink:href="#mbdd97ebdc5" y="309.729897"/>
      </g>
     </g>
     <g id="text_10">
      <!-- 200 -->
      <g transform="translate(117.1925 313.529116)scale(0.1 -0.1)">
       <use xlink:href="#DejaVuSans-50"/>
       <use x="63.623047" xlink:href="#DejaVuSans-48"/>
       <use x="127.246094" xlink:href="#DejaVuSans-48"/>
      </g>
     </g>
    </g>
    <g id="ytick_4">
     <g id="line2d_11">
      <g>
       <use style="stroke:#000000;stroke-width:0.8;" x="143.28" xlink:href="#mbdd97ebdc5" y="247.759488"/>
      </g>
     </g>
     <g id="text_11">
      <!-- 400 -->
      <g transform="translate(117.1925 251.558707)scale(0.1 -0.1)">
       <use xlink:href="#DejaVuSans-52"/>
       <use x="63.623047" xlink:href="#DejaVuSans-48"/>
       <use x="127.246094" xlink:href="#DejaVuSans-48"/>
      </g>
     </g>
    </g>
    <g id="ytick_5">
     <g id="line2d_12">
      <g>
       <use style="stroke:#000000;stroke-width:0.8;" x="143.28" xlink:href="#mbdd97ebdc5" y="185.78908"/>
      </g>
     </g>
     <g id="text_12">
      <!-- 600 -->
      <g transform="translate(117.1925 189.588299)scale(0.1 -0.1)">
       <use xlink:href="#DejaVuSans-54"/>
       <use x="63.623047" xlink:href="#DejaVuSans-48"/>
       <use x="127.246094" xlink:href="#DejaVuSans-48"/>
      </g>
     </g>
    </g>
    <g id="ytick_6">
     <g id="line2d_13">
      <g>
       <use style="stroke:#000000;stroke-width:0.8;" x="143.28" xlink:href="#mbdd97ebdc5" y="123.818671"/>
      </g>
     </g>
     <g id="text_13">
      <!-- 800 -->
      <g transform="translate(117.1925 127.61789)scale(0.1 -0.1)">
       <use xlink:href="#DejaVuSans-56"/>
       <use x="63.623047" xlink:href="#DejaVuSans-48"/>
       <use x="127.246094" xlink:href="#DejaVuSans-48"/>
      </g>
     </g>
    </g>
   </g>
   <g id="line2d_14">
    <path clip-path="url(#p8c5e0b578f)" d="M 114.353288 371.534762 
L 177.643784 371.739359 
L 268.477664 372.050175 
L 325.74154 372.309948 
L 427.302695 373.093992 
L 455.900416 373.60676 
L 486.384921 374.35848 
L 501.214261 374.892394 
L 517.684027 375.772296 
L 527.33426 376.51458 
L 535.923938 377.445004 
L 543.396513 378.587718 
L 548.435371 379.650031 
L 552.244812 380.676484 
L 556.080419 382.028442 
L 558.652116 383.168308 
L 561.235577 384.588595 
L 563.830855 386.407503 
L 565.132942 387.539485 
L 566.438004 388.856334 
L 567.746047 390.368468 
L 569.057078 392.218691 
L 570.371104 394.469403 
L 571.688132 397.266518 
L 573.008169 400.776412 
L 574.331221 405.481925 
L 575.657296 411.985028 
L 576.9864 421.559376 
L 578.31854 437.05393 
L 579.653724 466.418576 
L 580.991957 543.371228 
L 581.01524 556.12 
M 583.153145 556.12 
L 583.677603 94.468191 
L 585.025029 251.321827 
L 586.375533 294.757942 
L 587.729122 315.126753 
L 589.085804 326.94839 
L 590.445584 334.66993 
L 591.808471 340.109348 
L 593.174472 344.148236 
L 594.543593 347.265903 
L 595.915842 349.701593 
L 597.291225 351.724759 
L 598.669751 353.404229 
L 600.051425 354.820774 
L 601.436256 356.031693 
L 604.215416 357.966258 
L 607.007289 359.489749 
L 609.811931 360.684079 
L 612.629402 361.678829 
L 616.879792 362.870474 
L 621.159377 363.790385 
L 626.911253 364.7654 
L 632.715869 365.523496 
L 640.046541 366.27346 
L 650.451013 367.05841 
L 664.074725 367.791556 
L 676.421818 368.282436 
L 692.176044 368.757919 
L 713.201396 369.220506 
L 739.949776 369.645184 
L 796.467359 370.199079 
L 837.787533 370.379153 
L 851.375856 370.375861 
L 1111.232708 371.317851 
L 1147.24 371.406143 
L 1147.24 371.406143 
" style="fill:none;stroke:#1f77b4;stroke-linecap:square;stroke-width:1.5;"/>
   </g>
   <g id="line2d_15">
    <path clip-path="url(#p8c5e0b578f)" d="M 114.353288 371.547378 
L 182.745945 371.751982 
L 394.031622 372.780803 
L 455.900416 373.523336 
L 488.637824 374.288437 
L 502.373304 374.870068 
L 514.110365 375.609744 
L 524.905161 376.493895 
L 533.455728 377.410744 
L 539.647437 378.28382 
L 545.910193 379.44953 
L 549.702288 380.366587 
L 553.520431 381.530494 
L 556.080419 382.483909 
L 558.652116 383.646199 
L 561.235577 385.120397 
L 563.830855 386.97898 
L 565.132942 388.118784 
L 566.438004 389.444817 
L 567.746047 391.006809 
L 569.057078 392.873927 
L 570.371104 395.190377 
L 571.688132 398.018714 
L 573.008169 401.62882 
L 574.331221 406.396902 
L 575.657296 412.986674 
L 576.9864 422.68887 
L 578.31854 438.390649 
L 579.653724 468.14849 
L 580.991957 546.132397 
L 581.009956 556.12 
M 583.156063 556.12 
L 583.677603 90.672085 
L 585.025029 249.932822 
L 586.375533 294.035129 
L 587.729122 314.716059 
L 589.085804 326.718618 
L 590.445584 334.558144 
L 591.808471 340.080518 
L 593.174472 344.180863 
L 594.543593 347.345846 
L 595.915842 349.862803 
L 597.291225 351.874523 
L 598.669751 353.57902 
L 600.051425 355.016588 
L 601.436256 356.245399 
L 604.215416 358.235642 
L 607.007289 359.7781 
L 609.811931 360.98834 
L 612.629402 361.994968 
L 615.459761 362.815563 
L 619.729592 363.839428 
L 625.468358 364.881739 
L 632.715869 365.849597 
L 641.522739 366.69166 
L 648.954466 367.224093 
L 659.502365 367.759146 
L 673.313882 368.169071 
L 713.201396 369.164955 
L 757.170272 369.829746 
L 801.980531 370.245235 
L 851.375856 370.517113 
L 935.474541 370.765145 
L 1147.24 371.406978 
L 1147.24 371.406978 
" style="fill:none;stroke:#ff7f0e;stroke-linecap:square;stroke-width:1.5;"/>
   </g>
   <g id="line2d_16">
    <path clip-path="url(#p8c5e0b578f)" d="M 114.353288 371.555437 
L 186.225833 371.760929 
L 388.590071 372.723144 
L 450.658763 373.424231 
L 470.899227 373.817271 
L 492.036515 374.442586 
L 505.866344 375.047919 
L 521.282236 376.036176 
L 529.77447 376.80732 
L 537.162273 377.708404 
L 543.396513 378.728502 
L 547.171342 379.51345 
L 550.972099 380.492077 
L 553.520431 381.28464 
L 556.080419 382.233553 
L 558.652116 383.412725 
L 561.235577 384.856742 
L 563.830855 386.706077 
L 565.132942 387.855552 
L 566.438004 389.192765 
L 567.746047 390.731671 
L 569.057078 392.610865 
L 570.371104 394.85292 
L 571.688132 397.688598 
L 573.008169 401.307952 
L 574.331221 406.023274 
L 575.657296 412.617265 
L 576.9864 422.230221 
L 578.31854 437.912135 
L 579.653724 467.631933 
L 580.991957 545.189747 
L 581.011717 556.12 
M 583.155697 556.12 
L 583.677603 92.228776 
L 585.025029 250.386388 
L 586.375533 294.183544 
L 587.729122 314.827732 
L 589.085804 326.725212 
L 590.445584 334.565408 
L 591.808471 340.029393 
L 593.174472 344.086503 
L 594.543593 347.263541 
L 595.915842 349.749447 
L 597.291225 351.810573 
L 598.669751 353.487812 
L 600.051425 354.933439 
L 601.436256 356.140445 
L 604.215416 358.120543 
L 607.007289 359.655242 
L 609.811931 360.859906 
L 612.629402 361.861591 
L 615.459761 362.695005 
L 618.303066 363.399333 
L 622.592428 364.265951 
L 628.357444 365.171561 
L 634.17532 365.891526 
L 643.002309 366.702537 
L 651.950979 367.323487 
L 664.074725 367.931899 
L 679.54397 368.474418 
L 700.188993 368.927235 
L 736.552579 369.50165 
L 771.232404 369.918156 
L 818.74831 370.312704 
L 891.417257 370.630945 
L 905.869079 370.630671 
L 1147.24 371.400681 
L 1147.24 371.400681 
" style="fill:none;stroke:#2ca02c;stroke-linecap:square;stroke-width:1.5;"/>
   </g>
   <g id="line2d_17">
    <path clip-path="url(#p8c5e0b578f)" d="M 114.353288 371.494705 
L 197.519098 371.739909 
L 256.226271 371.931821 
L 403.268079 372.687151 
L 423.364427 372.930616 
L 484.142276 373.985177 
L 500.05786 374.472274 
L 516.490087 375.239721 
L 527.33426 376.025465 
L 534.688425 376.787513 
L 540.894279 377.666915 
L 545.910193 378.618922 
L 549.702288 379.533726 
L 553.520431 380.67593 
L 556.080419 381.624844 
L 558.652116 382.759209 
L 561.235577 384.172458 
L 563.830855 385.982143 
L 565.132942 387.076694 
L 566.438004 388.350009 
L 567.746047 389.849823 
L 569.057078 391.68151 
L 570.371104 393.823297 
L 571.688132 396.533494 
L 573.008169 399.992683 
L 574.331221 404.561298 
L 575.657296 410.875226 
L 576.9864 420.077505 
L 578.31854 435.092606 
L 579.653724 463.548661 
L 580.991957 537.800382 
L 581.026548 556.12 
M 583.146111 556.12 
L 583.677603 103.620547 
L 585.025029 255.55242 
L 586.375533 297.483115 
L 587.729122 317.250207 
L 589.085804 328.722404 
L 590.445584 336.147586 
L 591.808471 341.436049 
L 593.174472 345.312393 
L 594.543593 348.34911 
L 595.915842 350.724138 
L 597.291225 352.694336 
L 598.669751 354.329747 
L 600.051425 355.678615 
L 601.436256 356.859864 
L 602.824251 357.881208 
L 605.60976 359.535568 
L 608.40801 360.837686 
L 611.21906 361.889339 
L 614.042967 362.773402 
L 618.303066 363.827723 
L 624.028752 364.907965 
L 631.259744 365.90163 
L 640.046541 366.777452 
L 651.950979 367.601901 
L 667.1404 368.31369 
L 684.253996 368.836721 
L 709.925993 369.301262 
L 753.694665 369.833929 
L 809.390381 370.295699 
L 895.522821 370.712177 
L 1147.24 371.39922 
L 1147.24 371.39922 
" style="fill:none;stroke:#d62728;stroke-linecap:square;stroke-width:1.5;"/>
   </g>
   <g id="line2d_18">
    <path clip-path="url(#p8c5e0b578f)" d="M 114.353288 371.537183 
L 180.177401 371.723806 
L 396.780463 372.694385 
L 423.364427 372.976106 
L 475.273347 373.901834 
L 502.373304 374.714468 
L 515.298868 375.325269 
L 527.33426 376.167902 
L 535.923938 377.056731 
L 542.143969 377.952302 
L 545.910193 378.655276 
L 549.702288 379.556299 
L 553.520431 380.717246 
L 556.080419 381.707905 
L 558.652116 382.893282 
L 561.235577 384.394312 
L 563.830855 386.288313 
L 565.132942 387.464524 
L 566.438004 388.800461 
L 567.746047 390.373971 
L 569.057078 392.254695 
L 570.371104 394.54244 
L 571.688132 397.337802 
L 573.008169 400.959934 
L 574.331221 405.680769 
L 575.657296 412.205083 
L 576.9864 421.810707 
L 578.31854 437.476701 
L 579.653724 466.991337 
L 580.991957 544.021457 
L 581.01398 556.12 
M 583.153929 556.12 
L 583.677603 93.647078 
L 585.025029 251.014652 
L 586.375533 294.733252 
L 587.729122 315.131356 
L 589.085804 326.969953 
L 590.445584 334.769575 
L 591.808471 340.206767 
L 593.174472 344.293635 
L 594.543593 347.404268 
L 595.915842 349.917487 
L 597.291225 351.963947 
L 598.669751 353.630034 
L 600.051425 355.065309 
L 601.436256 356.292156 
L 604.215416 358.254977 
L 607.007289 359.776278 
L 609.811931 361.00932 
L 612.629402 361.99859 
L 616.879792 363.206358 
L 622.592428 364.412458 
L 628.357444 365.324892 
L 634.17532 366.039519 
L 641.522739 366.743449 
L 650.451013 367.388659 
L 661.023009 367.966485 
L 674.866077 368.522692 
L 695.370257 369.06896 
L 718.142615 369.376845 
L 765.928999 369.914286 
L 832.03008 370.419161 
L 891.417257 370.684432 
L 946.279226 370.783397 
L 1147.24 371.398104 
L 1147.24 371.398104 
" style="fill:none;stroke:#9467bd;stroke-linecap:square;stroke-width:1.5;"/>
   </g>
   <g id="line2d_19">
    <path clip-path="url(#p8c5e0b578f)" d="M 114.353288 371.536121 
L 194.749672 371.769438 
L 256.825653 371.969442 
L 390.39565 372.669654 
L 426.314755 373.000931 
L 449.61759 373.409764 
L 478.580238 374.030615 
L 496.604446 374.565085 
L 510.561083 375.158501 
L 521.282236 375.792796 
L 529.77447 376.48021 
L 538.403438 377.458517 
L 544.651919 378.454297 
L 549.702288 379.543294 
L 553.520431 380.629651 
L 556.080419 381.532359 
L 558.652116 382.6542 
L 561.235577 384.076002 
L 562.531736 384.926614 
L 565.132942 387.042353 
L 566.438004 388.375173 
L 567.746047 389.944937 
L 569.057078 391.859158 
L 570.371104 394.145342 
L 571.688132 397.033556 
L 573.008169 400.665964 
L 574.331221 405.525294 
L 575.657296 412.166531 
L 576.9864 421.943903 
L 578.31854 437.647068 
L 579.653724 467.579562 
L 580.991957 545.706666 
L 581.010689 556.12 
M 583.155977 556.12 
L 583.677603 89.954945 
L 585.025029 249.419743 
L 586.375533 293.440093 
L 587.729122 314.184842 
L 589.085804 326.224612 
L 590.445584 334.088586 
L 591.808471 339.628304 
L 593.174472 343.741633 
L 594.543593 346.916733 
L 595.915842 349.44182 
L 597.291225 351.498025 
L 598.669751 353.23718 
L 600.051425 354.674257 
L 602.824251 356.990552 
L 605.60976 358.754659 
L 608.40801 360.14313 
L 611.21906 361.282596 
L 615.459761 362.61689 
L 619.729592 363.652654 
L 624.028752 364.480159 
L 629.806938 365.359138 
L 637.104232 366.21561 
L 647.461329 367.085727 
L 657.985188 367.733492 
L 671.765225 368.348473 
L 688.996374 368.893663 
L 708.293888 369.311073 
L 728.127108 369.562259 
L 760.661776 369.838531 
L 824.41453 370.362559 
L 887.330387 370.676858 
L 948.454995 370.805477 
L 1108.68593 371.274821 
L 1147.24 371.399197 
L 1147.24 371.399197 
" style="fill:none;stroke:#8c564b;stroke-linecap:square;stroke-width:1.5;"/>
   </g>
   <g id="line2d_20">
    <path clip-path="url(#p8c5e0b578f)" d="M 114.353288 371.540928 
L 178.906256 371.722703 
L 384.11201 372.62747 
L 444.447211 373.256239 
L 466.564849 373.713931 
L 489.768137 374.349253 
L 504.69934 374.907145 
L 520.080095 375.746916 
L 530.998757 376.645265 
L 537.162273 377.345058 
L 542.143969 378.057794 
L 547.171342 378.993557 
L 552.244812 380.250456 
L 556.080419 381.528082 
L 558.652116 382.605802 
L 561.235577 383.972614 
L 563.830855 385.722955 
L 565.132942 386.796285 
L 566.438004 388.044914 
L 567.746047 389.515654 
L 569.057078 391.273614 
L 570.371104 393.412107 
L 571.688132 396.116558 
L 573.008169 399.515112 
L 574.331221 404.065303 
L 575.657296 410.353613 
L 576.9864 419.611565 
L 578.31854 434.712309 
L 579.653724 463.158663 
L 580.991957 538.013981 
L 581.025872 556.12 
M 583.146884 556.12 
L 583.677603 100.853999 
L 585.025029 253.498288 
L 586.375533 295.769629 
L 587.729122 315.693793 
L 589.085804 327.178053 
L 590.445584 334.745409 
L 591.808471 340.076446 
L 593.174472 344.035061 
L 594.543593 347.134045 
L 595.915842 349.56005 
L 597.291225 351.570754 
L 598.669751 353.271935 
L 600.051425 354.677314 
L 602.824251 356.94305 
L 605.60976 358.691192 
L 608.40801 360.067194 
L 611.21906 361.178583 
L 615.459761 362.511274 
L 619.729592 363.545895 
L 624.028752 364.384951 
L 629.806938 365.276108 
L 638.573708 366.273393 
L 647.461329 367.018491 
L 657.985188 367.676192 
L 676.421818 368.474397 
L 701.802583 369.164866 
L 724.783743 369.569565 
L 745.074728 369.754825 
L 764.16925 369.864599 
L 867.173476 370.588562 
L 937.625627 370.787237 
L 1037.301514 371.063608 
L 1147.24 371.397044 
L 1147.24 371.397044 
" style="fill:none;stroke:#e377c2;stroke-linecap:square;stroke-width:1.5;"/>
   </g>
   <g id="line2d_21">
    <path clip-path="url(#p8c5e0b578f)" d="M 114.353288 371.542648 
L 197.984366 371.78289 
L 259.843163 371.982042 
L 390.39565 372.663664 
L 444.447211 373.255846 
L 471.989017 373.802514 
L 493.174592 374.426611 
L 509.383378 375.117664 
L 522.487123 375.927715 
L 532.225841 376.795576 
L 539.647437 377.718778 
L 545.910193 378.793289 
L 550.972099 379.964511 
L 554.798965 381.14087 
L 557.364801 382.121825 
L 559.942373 383.352499 
L 562.531736 384.880491 
L 563.830855 385.818859 
L 565.132942 386.898887 
L 566.438004 388.155308 
L 567.746047 389.635229 
L 569.057078 391.366723 
L 570.371104 393.514561 
L 571.688132 396.183846 
L 573.008169 399.590822 
L 574.331221 404.090486 
L 575.657296 410.381933 
L 576.9864 419.554611 
L 578.31854 434.399173 
L 579.653724 462.532053 
L 580.991957 536.564271 
L 581.029165 556.12 
M 583.14413 556.12 
L 583.677603 105.194434 
L 585.025029 255.814888 
L 586.375533 297.661678 
L 587.729122 317.184995 
L 589.085804 328.437025 
L 590.445584 335.852055 
L 591.808471 341.075659 
L 593.174472 344.906047 
L 594.543593 347.905734 
L 595.915842 350.253063 
L 597.291225 352.199442 
L 598.669751 353.783472 
L 600.051425 355.119646 
L 601.436256 356.289062 
L 604.215416 358.159852 
L 607.007289 359.631118 
L 609.811931 360.80528 
L 612.629402 361.764242 
L 615.459761 362.577834 
L 619.729592 363.591582 
L 624.028752 364.401684 
L 629.806938 365.258868 
L 635.638105 365.954644 
L 644.485259 366.761173 
L 653.454372 367.381818 
L 665.605813 368.01467 
L 679.54397 368.548772 
L 705.040829 369.210165 
L 738.249239 369.72993 
L 757.170272 369.818716 
L 778.36032 369.968044 
L 853.334824 370.503445 
L 924.792428 370.802412 
L 1142.251671 371.377953 
L 1147.24 371.396083 
L 1147.24 371.396083 
" style="fill:none;stroke:#7f7f7f;stroke-linecap:square;stroke-width:1.5;"/>
   </g>
   <g id="line2d_22">
    <path clip-path="url(#p8c5e0b578f)" d="M 114.353288 371.543115 
L 201.271142 371.794619 
L 261.670263 371.991284 
L 394.031622 372.680708 
L 442.39552 373.232171 
L 471.989017 373.797863 
L 488.637824 374.241035 
L 507.036015 374.953147 
L 520.080095 375.710063 
L 529.77447 376.503399 
L 537.162273 377.346817 
L 543.396513 378.301627 
L 548.435371 379.323359 
L 552.244812 380.332207 
L 554.798965 381.144533 
L 557.364801 382.145459 
L 559.942373 383.378237 
L 562.531736 384.93418 
L 563.830855 385.875906 
L 565.132942 386.9598 
L 566.438004 388.22072 
L 567.746047 389.705942 
L 569.057078 391.481216 
L 570.371104 393.640775 
L 571.688132 396.324628 
L 573.008169 399.750201 
L 574.331221 404.274429 
L 575.657296 410.527025 
L 576.9864 419.732602 
L 578.31854 434.630411 
L 579.653724 463.0331 
L 580.991957 537.158921 
L 581.027905 556.12 
M 583.145266 556.12 
L 583.677603 104.74548 
L 585.025029 255.624555 
L 586.375533 297.54207 
L 587.729122 317.198703 
L 589.085804 328.528432 
L 590.445584 335.993632 
L 591.808471 341.197252 
L 593.174472 345.109174 
L 594.543593 348.086311 
L 595.915842 350.492164 
L 597.291225 352.416755 
L 598.669751 354.046012 
L 600.051425 355.391141 
L 602.824251 357.560494 
L 605.60976 359.190902 
L 608.40801 360.494064 
L 611.21906 361.546721 
L 615.459761 362.786661 
L 619.729592 363.763234 
L 625.468358 364.762391 
L 631.259744 365.553674 
L 641.522739 366.575892 
L 651.950979 367.314339 
L 662.547126 367.882051 
L 676.421818 368.440138 
L 700.188993 369.093747 
L 723.117774 369.514773 
L 748.510906 369.825487 
L 764.16925 369.858061 
L 792.812822 370.071887 
L 877.194438 370.61012 
L 941.942553 370.83137 
L 959.408624 370.824247 
L 1147.24 371.393382 
L 1147.24 371.393382 
" style="fill:none;stroke:#bcbd22;stroke-linecap:square;stroke-width:1.5;"/>
   </g>
   <g id="line2d_23">
    <path clip-path="url(#p8c5e0b578f)" d="M 114.353288 371.545502 
L 203.65119 371.803354 
L 385.00354 372.616708 
L 422.385464 372.93681 
L 452.748251 373.404347 
L 479.687574 373.991608 
L 502.373304 374.732959 
L 517.684027 375.518124 
L 526.118325 376.131808 
L 534.688425 376.98471 
L 539.647437 377.622296 
L 544.651919 378.459972 
L 548.435371 379.240416 
L 552.244812 380.238282 
L 556.080419 381.531176 
L 558.652116 382.628917 
L 561.235577 383.996648 
L 562.531736 384.81499 
L 565.132942 386.850933 
L 566.438004 388.102727 
L 567.746047 389.577198 
L 569.057078 391.339622 
L 570.371104 393.524495 
L 571.688132 396.193842 
L 573.008169 399.600901 
L 574.331221 404.100677 
L 575.657296 410.391396 
L 576.9864 419.564103 
L 578.31854 434.40872 
L 579.653724 462.709634 
L 580.991957 536.570503 
L 581.029154 556.12 
M 583.144141 556.12 
L 583.677603 105.214529 
L 585.025029 256.042889 
L 586.375533 297.810408 
L 587.729122 317.297768 
L 589.085804 328.686057 
L 590.445584 336.060045 
L 591.808471 341.309609 
L 593.174472 345.2075 
L 594.543593 348.17405 
L 595.915842 350.571264 
L 597.291225 352.523344 
L 598.669751 354.112417 
L 600.051425 355.481652 
L 601.436256 356.652114 
L 604.215416 358.524711 
L 607.007289 359.976285 
L 609.811931 361.15314 
L 614.042967 362.515449 
L 618.303066 363.561411 
L 622.592428 364.402579 
L 628.357444 365.274527 
L 635.638105 366.118073 
L 644.485259 366.877693 
L 654.961199 367.546063 
L 668.678492 368.182318 
L 687.411973 368.792898 
L 713.201396 369.352056 
L 748.510906 369.828982 
L 776.572237 369.974276 
L 822.521479 370.290349 
L 922.670592 370.791313 
L 993.029424 370.92266 
L 1147.24 371.392509 
L 1147.24 371.392509 
" style="fill:none;stroke:#17becf;stroke-linecap:square;stroke-width:1.5;"/>
   </g>
   <g id="line2d_24">
    <path clip-path="url(#p8c5e0b578f)" d="M 143.28 371.700306 
L 1031.616 371.700306 
" style="fill:none;stroke:#000000;stroke-linecap:square;stroke-width:1.5;"/>
   </g>
   <g id="line2d_25">
    <path clip-path="url(#p8c5e0b578f)" style="fill:none;stroke:#000000;stroke-linecap:square;stroke-width:1.5;"/>
   </g>
   <g id="patch_3">
    <path d="M 143.28 494.0568 
L 143.28 66.6144 
" style="fill:none;stroke:#000000;stroke-linecap:square;stroke-linejoin:miter;stroke-width:0.8;"/>
   </g>
   <g id="patch_4">
    <path d="M 1031.616 494.0568 
L 1031.616 66.6144 
" style="fill:none;stroke:#000000;stroke-linecap:square;stroke-linejoin:miter;stroke-width:0.8;"/>
   </g>
   <g id="patch_5">
    <path d="M 143.28 494.0568 
L 1031.616 494.0568 
" style="fill:none;stroke:#000000;stroke-linecap:square;stroke-linejoin:miter;stroke-width:0.8;"/>
   </g>
   <g id="patch_6">
    <path d="M 143.28 66.6144 
L 1031.616 66.6144 
" style="fill:none;stroke:#000000;stroke-linecap:square;stroke-linejoin:miter;stroke-width:0.8;"/>
   </g>
   <g id="legend_1">
    <g id="patch_7">
     <path d="M 767.737875 148.005025 
L 1024.616 148.005025 
Q 1026.616 148.005025 1026.616 146.005025 
L 1026.616 73.6144 
Q 1026.616 71.6144 1024.616 71.6144 
L 767.737875 71.6144 
Q 765.737875 71.6144 765.737875 73.6144 
L 765.737875 146.005025 
Q 765.737875 148.005025 767.737875 148.005025 
z
" style="fill:#ffffff;opacity:0.8;stroke:#cccccc;stroke-linejoin:miter;"/>
    </g>
    <g id="line2d_26">
     <path d="M 769.737875 79.712837 
L 789.737875 79.712837 
" style="fill:none;stroke:#1f77b4;stroke-linecap:square;stroke-width:1.5;"/>
    </g>
    <g id="line2d_27"/>
    <g id="text_14">
     <!-- alpha(s, 1000, 4) -->
     <defs>
      <path d="M 34.28125 27.484375 
Q 23.390625 27.484375 19.1875 25 
Q 14.984375 22.515625 14.984375 16.5 
Q 14.984375 11.71875 18.140625 8.90625 
Q 21.296875 6.109375 26.703125 6.109375 
Q 34.1875 6.109375 38.703125 11.40625 
Q 43.21875 16.703125 43.21875 25.484375 
L 43.21875 27.484375 
z
M 52.203125 31.203125 
L 52.203125 0 
L 43.21875 0 
L 43.21875 8.296875 
Q 40.140625 3.328125 35.546875 0.953125 
Q 30.953125 -1.421875 24.3125 -1.421875 
Q 15.921875 -1.421875 10.953125 3.296875 
Q 6 8.015625 6 15.921875 
Q 6 25.140625 12.171875 29.828125 
Q 18.359375 34.515625 30.609375 34.515625 
L 43.21875 34.515625 
L 43.21875 35.40625 
Q 43.21875 41.609375 39.140625 45 
Q 35.0625 48.390625 27.6875 48.390625 
Q 23 48.390625 18.546875 47.265625 
Q 14.109375 46.140625 10.015625 43.890625 
L 10.015625 52.203125 
Q 14.9375 54.109375 19.578125 55.046875 
Q 24.21875 56 28.609375 56 
Q 40.484375 56 46.34375 49.84375 
Q 52.203125 43.703125 52.203125 31.203125 
z
" id="DejaVuSans-97"/>
      <path d="M 9.421875 75.984375 
L 18.40625 75.984375 
L 18.40625 0 
L 9.421875 0 
z
" id="DejaVuSans-108"/>
      <path d="M 18.109375 8.203125 
L 18.109375 -20.796875 
L 9.078125 -20.796875 
L 9.078125 54.6875 
L 18.109375 54.6875 
L 18.109375 46.390625 
Q 20.953125 51.265625 25.265625 53.625 
Q 29.59375 56 35.59375 56 
Q 45.5625 56 51.78125 48.09375 
Q 58.015625 40.1875 58.015625 27.296875 
Q 58.015625 14.40625 51.78125 6.484375 
Q 45.5625 -1.421875 35.59375 -1.421875 
Q 29.59375 -1.421875 25.265625 0.953125 
Q 20.953125 3.328125 18.109375 8.203125 
z
M 48.6875 27.296875 
Q 48.6875 37.203125 44.609375 42.84375 
Q 40.53125 48.484375 33.40625 48.484375 
Q 26.265625 48.484375 22.1875 42.84375 
Q 18.109375 37.203125 18.109375 27.296875 
Q 18.109375 17.390625 22.1875 11.75 
Q 26.265625 6.109375 33.40625 6.109375 
Q 40.53125 6.109375 44.609375 11.75 
Q 48.6875 17.390625 48.6875 27.296875 
z
" id="DejaVuSans-112"/>
      <path d="M 54.890625 33.015625 
L 54.890625 0 
L 45.90625 0 
L 45.90625 32.71875 
Q 45.90625 40.484375 42.875 44.328125 
Q 39.84375 48.1875 33.796875 48.1875 
Q 26.515625 48.1875 22.3125 43.546875 
Q 18.109375 38.921875 18.109375 30.90625 
L 18.109375 0 
L 9.078125 0 
L 9.078125 75.984375 
L 18.109375 75.984375 
L 18.109375 46.1875 
Q 21.34375 51.125 25.703125 53.5625 
Q 30.078125 56 35.796875 56 
Q 45.21875 56 50.046875 50.171875 
Q 54.890625 44.34375 54.890625 33.015625 
z
" id="DejaVuSans-104"/>
      <path d="M 31 75.875 
Q 24.46875 64.65625 21.28125 53.65625 
Q 18.109375 42.671875 18.109375 31.390625 
Q 18.109375 20.125 21.3125 9.0625 
Q 24.515625 -2 31 -13.1875 
L 23.1875 -13.1875 
Q 15.875 -1.703125 12.234375 9.375 
Q 8.59375 20.453125 8.59375 31.390625 
Q 8.59375 42.28125 12.203125 53.3125 
Q 15.828125 64.359375 23.1875 75.875 
z
" id="DejaVuSans-40"/>
      <path d="M 44.28125 53.078125 
L 44.28125 44.578125 
Q 40.484375 46.53125 36.375 47.5 
Q 32.28125 48.484375 27.875 48.484375 
Q 21.1875 48.484375 17.84375 46.4375 
Q 14.5 44.390625 14.5 40.28125 
Q 14.5 37.15625 16.890625 35.375 
Q 19.28125 33.59375 26.515625 31.984375 
L 29.59375 31.296875 
Q 39.15625 29.25 43.1875 25.515625 
Q 47.21875 21.78125 47.21875 15.09375 
Q 47.21875 7.46875 41.1875 3.015625 
Q 35.15625 -1.421875 24.609375 -1.421875 
Q 20.21875 -1.421875 15.453125 -0.5625 
Q 10.6875 0.296875 5.421875 2 
L 5.421875 11.28125 
Q 10.40625 8.6875 15.234375 7.390625 
Q 20.0625 6.109375 24.8125 6.109375 
Q 31.15625 6.109375 34.5625 8.28125 
Q 37.984375 10.453125 37.984375 14.40625 
Q 37.984375 18.0625 35.515625 20.015625 
Q 33.0625 21.96875 24.703125 23.78125 
L 21.578125 24.515625 
Q 13.234375 26.265625 9.515625 29.90625 
Q 5.8125 33.546875 5.8125 39.890625 
Q 5.8125 47.609375 11.28125 51.796875 
Q 16.75 56 26.8125 56 
Q 31.78125 56 36.171875 55.265625 
Q 40.578125 54.546875 44.28125 53.078125 
z
" id="DejaVuSans-115"/>
      <path d="M 11.71875 12.40625 
L 22.015625 12.40625 
L 22.015625 4 
L 14.015625 -11.625 
L 7.71875 -11.625 
L 11.71875 4 
z
" id="DejaVuSans-44"/>
      <path id="DejaVuSans-32"/>
      <path d="M 12.40625 8.296875 
L 28.515625 8.296875 
L 28.515625 63.921875 
L 10.984375 60.40625 
L 10.984375 69.390625 
L 28.421875 72.90625 
L 38.28125 72.90625 
L 38.28125 8.296875 
L 54.390625 8.296875 
L 54.390625 0 
L 12.40625 0 
z
" id="DejaVuSans-49"/>
      <path d="M 8.015625 75.875 
L 15.828125 75.875 
Q 23.140625 64.359375 26.78125 53.3125 
Q 30.421875 42.28125 30.421875 31.390625 
Q 30.421875 20.453125 26.78125 9.375 
Q 23.140625 -1.703125 15.828125 -13.1875 
L 8.015625 -13.1875 
Q 14.5 -2 17.703125 9.0625 
Q 20.90625 20.125 20.90625 31.390625 
Q 20.90625 42.671875 17.703125 53.65625 
Q 14.5 64.65625 8.015625 75.875 
z
" id="DejaVuSans-41"/>
     </defs>
     <g transform="translate(797.737875 83.212837)scale(0.1 -0.1)">
      <use xlink:href="#DejaVuSans-97"/>
      <use x="61.279297" xlink:href="#DejaVuSans-108"/>
      <use x="89.0625" xlink:href="#DejaVuSans-112"/>
      <use x="152.539062" xlink:href="#DejaVuSans-104"/>
      <use x="215.917969" xlink:href="#DejaVuSans-97"/>
      <use x="277.197266" xlink:href="#DejaVuSans-40"/>
      <use x="316.210938" xlink:href="#DejaVuSans-115"/>
      <use x="368.310547" xlink:href="#DejaVuSans-44"/>
      <use x="400.097656" xlink:href="#DejaVuSans-32"/>
      <use x="431.884766" xlink:href="#DejaVuSans-49"/>
      <use x="495.507812" xlink:href="#DejaVuSans-48"/>
      <use x="559.130859" xlink:href="#DejaVuSans-48"/>
      <use x="622.753906" xlink:href="#DejaVuSans-48"/>
      <use x="686.376953" xlink:href="#DejaVuSans-44"/>
      <use x="718.164062" xlink:href="#DejaVuSans-32"/>
      <use x="749.951172" xlink:href="#DejaVuSans-52"/>
      <use x="813.574219" xlink:href="#DejaVuSans-41"/>
     </g>
    </g>
    <g id="line2d_28">
     <path d="M 769.737875 94.390963 
L 789.737875 94.390963 
" style="fill:none;stroke:#ff7f0e;stroke-linecap:square;stroke-width:1.5;"/>
    </g>
    <g id="line2d_29"/>
    <g id="text_15">
     <!-- alpha(s, 2000, 4) -->
     <g transform="translate(797.737875 97.890963)scale(0.1 -0.1)">
      <use xlink:href="#DejaVuSans-97"/>
      <use x="61.279297" xlink:href="#DejaVuSans-108"/>
      <use x="89.0625" xlink:href="#DejaVuSans-112"/>
      <use x="152.539062" xlink:href="#DejaVuSans-104"/>
      <use x="215.917969" xlink:href="#DejaVuSans-97"/>
      <use x="277.197266" xlink:href="#DejaVuSans-40"/>
      <use x="316.210938" xlink:href="#DejaVuSans-115"/>
      <use x="368.310547" xlink:href="#DejaVuSans-44"/>
      <use x="400.097656" xlink:href="#DejaVuSans-32"/>
      <use x="431.884766" xlink:href="#DejaVuSans-50"/>
      <use x="495.507812" xlink:href="#DejaVuSans-48"/>
      <use x="559.130859" xlink:href="#DejaVuSans-48"/>
      <use x="622.753906" xlink:href="#DejaVuSans-48"/>
      <use x="686.376953" xlink:href="#DejaVuSans-44"/>
      <use x="718.164062" xlink:href="#DejaVuSans-32"/>
      <use x="749.951172" xlink:href="#DejaVuSans-52"/>
      <use x="813.574219" xlink:href="#DejaVuSans-41"/>
     </g>
    </g>
    <g id="line2d_30">
     <path d="M 769.737875 109.069087 
L 789.737875 109.069087 
" style="fill:none;stroke:#2ca02c;stroke-linecap:square;stroke-width:1.5;"/>
    </g>
    <g id="line2d_31"/>
    <g id="text_16">
     <!-- alpha(s, 3000, 4) -->
     <g transform="translate(797.737875 112.569087)scale(0.1 -0.1)">
      <use xlink:href="#DejaVuSans-97"/>
      <use x="61.279297" xlink:href="#DejaVuSans-108"/>
      <use x="89.0625" xlink:href="#DejaVuSans-112"/>
      <use x="152.539062" xlink:href="#DejaVuSans-104"/>
      <use x="215.917969" xlink:href="#DejaVuSans-97"/>
      <use x="277.197266" xlink:href="#DejaVuSans-40"/>
      <use x="316.210938" xlink:href="#DejaVuSans-115"/>
      <use x="368.310547" xlink:href="#DejaVuSans-44"/>
      <use x="400.097656" xlink:href="#DejaVuSans-32"/>
      <use x="431.884766" xlink:href="#DejaVuSans-51"/>
      <use x="495.507812" xlink:href="#DejaVuSans-48"/>
      <use x="559.130859" xlink:href="#DejaVuSans-48"/>
      <use x="622.753906" xlink:href="#DejaVuSans-48"/>
      <use x="686.376953" xlink:href="#DejaVuSans-44"/>
      <use x="718.164062" xlink:href="#DejaVuSans-32"/>
      <use x="749.951172" xlink:href="#DejaVuSans-52"/>
      <use x="813.574219" xlink:href="#DejaVuSans-41"/>
     </g>
    </g>
    <g id="line2d_32">
     <path d="M 769.737875 123.747212 
L 789.737875 123.747212 
" style="fill:none;stroke:#d62728;stroke-linecap:square;stroke-width:1.5;"/>
    </g>
    <g id="line2d_33"/>
    <g id="text_17">
     <!-- alpha(s, 4000, 4) -->
     <g transform="translate(797.737875 127.247212)scale(0.1 -0.1)">
      <use xlink:href="#DejaVuSans-97"/>
      <use x="61.279297" xlink:href="#DejaVuSans-108"/>
      <use x="89.0625" xlink:href="#DejaVuSans-112"/>
      <use x="152.539062" xlink:href="#DejaVuSans-104"/>
      <use x="215.917969" xlink:href="#DejaVuSans-97"/>
      <use x="277.197266" xlink:href="#DejaVuSans-40"/>
      <use x="316.210938" xlink:href="#DejaVuSans-115"/>
      <use x="368.310547" xlink:href="#DejaVuSans-44"/>
      <use x="400.097656" xlink:href="#DejaVuSans-32"/>
      <use x="431.884766" xlink:href="#DejaVuSans-52"/>
      <use x="495.507812" xlink:href="#DejaVuSans-48"/>
      <use x="559.130859" xlink:href="#DejaVuSans-48"/>
      <use x="622.753906" xlink:href="#DejaVuSans-48"/>
      <use x="686.376953" xlink:href="#DejaVuSans-44"/>
      <use x="718.164062" xlink:href="#DejaVuSans-32"/>
      <use x="749.951172" xlink:href="#DejaVuSans-52"/>
      <use x="813.574219" xlink:href="#DejaVuSans-41"/>
     </g>
    </g>
    <g id="line2d_34">
     <path d="M 769.737875 138.425337 
L 789.737875 138.425337 
" style="fill:none;stroke:#9467bd;stroke-linecap:square;stroke-width:1.5;"/>
    </g>
    <g id="line2d_35"/>
    <g id="text_18">
     <!-- alpha(s, 5000, 4) -->
     <g transform="translate(797.737875 141.925337)scale(0.1 -0.1)">
      <use xlink:href="#DejaVuSans-97"/>
      <use x="61.279297" xlink:href="#DejaVuSans-108"/>
      <use x="89.0625" xlink:href="#DejaVuSans-112"/>
      <use x="152.539062" xlink:href="#DejaVuSans-104"/>
      <use x="215.917969" xlink:href="#DejaVuSans-97"/>
      <use x="277.197266" xlink:href="#DejaVuSans-40"/>
      <use x="316.210938" xlink:href="#DejaVuSans-115"/>
      <use x="368.310547" xlink:href="#DejaVuSans-44"/>
      <use x="400.097656" xlink:href="#DejaVuSans-32"/>
      <use x="431.884766" xlink:href="#DejaVuSans-53"/>
      <use x="495.507812" xlink:href="#DejaVuSans-48"/>
      <use x="559.130859" xlink:href="#DejaVuSans-48"/>
      <use x="622.753906" xlink:href="#DejaVuSans-48"/>
      <use x="686.376953" xlink:href="#DejaVuSans-44"/>
      <use x="718.164062" xlink:href="#DejaVuSans-32"/>
      <use x="749.951172" xlink:href="#DejaVuSans-52"/>
      <use x="813.574219" xlink:href="#DejaVuSans-41"/>
     </g>
    </g>
    <g id="line2d_36">
     <path d="M 902.995688 79.712837 
L 922.995688 79.712837 
" style="fill:none;stroke:#8c564b;stroke-linecap:square;stroke-width:1.5;"/>
    </g>
    <g id="line2d_37"/>
    <g id="text_19">
     <!-- alpha(s, 6000, 4) -->
     <g transform="translate(930.995688 83.212837)scale(0.1 -0.1)">
      <use xlink:href="#DejaVuSans-97"/>
      <use x="61.279297" xlink:href="#DejaVuSans-108"/>
      <use x="89.0625" xlink:href="#DejaVuSans-112"/>
      <use x="152.539062" xlink:href="#DejaVuSans-104"/>
      <use x="215.917969" xlink:href="#DejaVuSans-97"/>
      <use x="277.197266" xlink:href="#DejaVuSans-40"/>
      <use x="316.210938" xlink:href="#DejaVuSans-115"/>
      <use x="368.310547" xlink:href="#DejaVuSans-44"/>
      <use x="400.097656" xlink:href="#DejaVuSans-32"/>
      <use x="431.884766" xlink:href="#DejaVuSans-54"/>
      <use x="495.507812" xlink:href="#DejaVuSans-48"/>
      <use x="559.130859" xlink:href="#DejaVuSans-48"/>
      <use x="622.753906" xlink:href="#DejaVuSans-48"/>
      <use x="686.376953" xlink:href="#DejaVuSans-44"/>
      <use x="718.164062" xlink:href="#DejaVuSans-32"/>
      <use x="749.951172" xlink:href="#DejaVuSans-52"/>
      <use x="813.574219" xlink:href="#DejaVuSans-41"/>
     </g>
    </g>
    <g id="line2d_38">
     <path d="M 902.995688 94.390963 
L 922.995688 94.390963 
" style="fill:none;stroke:#e377c2;stroke-linecap:square;stroke-width:1.5;"/>
    </g>
    <g id="line2d_39"/>
    <g id="text_20">
     <!-- alpha(s, 7000, 4) -->
     <g transform="translate(930.995688 97.890963)scale(0.1 -0.1)">
      <use xlink:href="#DejaVuSans-97"/>
      <use x="61.279297" xlink:href="#DejaVuSans-108"/>
      <use x="89.0625" xlink:href="#DejaVuSans-112"/>
      <use x="152.539062" xlink:href="#DejaVuSans-104"/>
      <use x="215.917969" xlink:href="#DejaVuSans-97"/>
      <use x="277.197266" xlink:href="#DejaVuSans-40"/>
      <use x="316.210938" xlink:href="#DejaVuSans-115"/>
      <use x="368.310547" xlink:href="#DejaVuSans-44"/>
      <use x="400.097656" xlink:href="#DejaVuSans-32"/>
      <use x="431.884766" xlink:href="#DejaVuSans-55"/>
      <use x="495.507812" xlink:href="#DejaVuSans-48"/>
      <use x="559.130859" xlink:href="#DejaVuSans-48"/>
      <use x="622.753906" xlink:href="#DejaVuSans-48"/>
      <use x="686.376953" xlink:href="#DejaVuSans-44"/>
      <use x="718.164062" xlink:href="#DejaVuSans-32"/>
      <use x="749.951172" xlink:href="#DejaVuSans-52"/>
      <use x="813.574219" xlink:href="#DejaVuSans-41"/>
     </g>
    </g>
    <g id="line2d_40">
     <path d="M 902.995688 109.069087 
L 922.995688 109.069087 
" style="fill:none;stroke:#7f7f7f;stroke-linecap:square;stroke-width:1.5;"/>
    </g>
    <g id="line2d_41"/>
    <g id="text_21">
     <!-- alpha(s, 8000, 4) -->
     <g transform="translate(930.995688 112.569087)scale(0.1 -0.1)">
      <use xlink:href="#DejaVuSans-97"/>
      <use x="61.279297" xlink:href="#DejaVuSans-108"/>
      <use x="89.0625" xlink:href="#DejaVuSans-112"/>
      <use x="152.539062" xlink:href="#DejaVuSans-104"/>
      <use x="215.917969" xlink:href="#DejaVuSans-97"/>
      <use x="277.197266" xlink:href="#DejaVuSans-40"/>
      <use x="316.210938" xlink:href="#DejaVuSans-115"/>
      <use x="368.310547" xlink:href="#DejaVuSans-44"/>
      <use x="400.097656" xlink:href="#DejaVuSans-32"/>
      <use x="431.884766" xlink:href="#DejaVuSans-56"/>
      <use x="495.507812" xlink:href="#DejaVuSans-48"/>
      <use x="559.130859" xlink:href="#DejaVuSans-48"/>
      <use x="622.753906" xlink:href="#DejaVuSans-48"/>
      <use x="686.376953" xlink:href="#DejaVuSans-44"/>
      <use x="718.164062" xlink:href="#DejaVuSans-32"/>
      <use x="749.951172" xlink:href="#DejaVuSans-52"/>
      <use x="813.574219" xlink:href="#DejaVuSans-41"/>
     </g>
    </g>
    <g id="line2d_42">
     <path d="M 902.995688 123.747212 
L 922.995688 123.747212 
" style="fill:none;stroke:#bcbd22;stroke-linecap:square;stroke-width:1.5;"/>
    </g>
    <g id="line2d_43"/>
    <g id="text_22">
     <!-- alpha(s, 9000, 4) -->
     <defs>
      <path d="M 10.984375 1.515625 
L 10.984375 10.5 
Q 14.703125 8.734375 18.5 7.8125 
Q 22.3125 6.890625 25.984375 6.890625 
Q 35.75 6.890625 40.890625 13.453125 
Q 46.046875 20.015625 46.78125 33.40625 
Q 43.953125 29.203125 39.59375 26.953125 
Q 35.25 24.703125 29.984375 24.703125 
Q 19.046875 24.703125 12.671875 31.3125 
Q 6.296875 37.9375 6.296875 49.421875 
Q 6.296875 60.640625 12.9375 67.421875 
Q 19.578125 74.21875 30.609375 74.21875 
Q 43.265625 74.21875 49.921875 64.515625 
Q 56.59375 54.828125 56.59375 36.375 
Q 56.59375 19.140625 48.40625 8.859375 
Q 40.234375 -1.421875 26.421875 -1.421875 
Q 22.703125 -1.421875 18.890625 -0.6875 
Q 15.09375 0.046875 10.984375 1.515625 
z
M 30.609375 32.421875 
Q 37.25 32.421875 41.125 36.953125 
Q 45.015625 41.5 45.015625 49.421875 
Q 45.015625 57.28125 41.125 61.84375 
Q 37.25 66.40625 30.609375 66.40625 
Q 23.96875 66.40625 20.09375 61.84375 
Q 16.21875 57.28125 16.21875 49.421875 
Q 16.21875 41.5 20.09375 36.953125 
Q 23.96875 32.421875 30.609375 32.421875 
z
" id="DejaVuSans-57"/>
     </defs>
     <g transform="translate(930.995688 127.247212)scale(0.1 -0.1)">
      <use xlink:href="#DejaVuSans-97"/>
      <use x="61.279297" xlink:href="#DejaVuSans-108"/>
      <use x="89.0625" xlink:href="#DejaVuSans-112"/>
      <use x="152.539062" xlink:href="#DejaVuSans-104"/>
      <use x="215.917969" xlink:href="#DejaVuSans-97"/>
      <use x="277.197266" xlink:href="#DejaVuSans-40"/>
      <use x="316.210938" xlink:href="#DejaVuSans-115"/>
      <use x="368.310547" xlink:href="#DejaVuSans-44"/>
      <use x="400.097656" xlink:href="#DejaVuSans-32"/>
      <use x="431.884766" xlink:href="#DejaVuSans-57"/>
      <use x="495.507812" xlink:href="#DejaVuSans-48"/>
      <use x="559.130859" xlink:href="#DejaVuSans-48"/>
      <use x="622.753906" xlink:href="#DejaVuSans-48"/>
      <use x="686.376953" xlink:href="#DejaVuSans-44"/>
      <use x="718.164062" xlink:href="#DejaVuSans-32"/>
      <use x="749.951172" xlink:href="#DejaVuSans-52"/>
      <use x="813.574219" xlink:href="#DejaVuSans-41"/>
     </g>
    </g>
    <g id="line2d_44">
     <path d="M 902.995688 138.425337 
L 922.995688 138.425337 
" style="fill:none;stroke:#17becf;stroke-linecap:square;stroke-width:1.5;"/>
    </g>
    <g id="line2d_45"/>
    <g id="text_23">
     <!-- alpha(s, 10000, 4) -->
     <g transform="translate(930.995688 141.925337)scale(0.1 -0.1)">
      <use xlink:href="#DejaVuSans-97"/>
      <use x="61.279297" xlink:href="#DejaVuSans-108"/>
      <use x="89.0625" xlink:href="#DejaVuSans-112"/>
      <use x="152.539062" xlink:href="#DejaVuSans-104"/>
      <use x="215.917969" xlink:href="#DejaVuSans-97"/>
      <use x="277.197266" xlink:href="#DejaVuSans-40"/>
      <use x="316.210938" xlink:href="#DejaVuSans-115"/>
      <use x="368.310547" xlink:href="#DejaVuSans-44"/>
      <use x="400.097656" xlink:href="#DejaVuSans-32"/>
      <use x="431.884766" xlink:href="#DejaVuSans-49"/>
      <use x="495.507812" xlink:href="#DejaVuSans-48"/>
      <use x="559.130859" xlink:href="#DejaVuSans-48"/>
      <use x="622.753906" xlink:href="#DejaVuSans-48"/>
      <use x="686.376953" xlink:href="#DejaVuSans-48"/>
      <use x="750" xlink:href="#DejaVuSans-44"/>
      <use x="781.787109" xlink:href="#DejaVuSans-32"/>
      <use x="813.574219" xlink:href="#DejaVuSans-52"/>
      <use x="877.197266" xlink:href="#DejaVuSans-41"/>
     </g>
    </g>
   </g>
  </g>
 </g>
 <defs>
  <clipPath id="p8c5e0b578f">
   <rect height="427.4424" width="888.336" x="143.28" y="66.6144"/>
  </clipPath>
 </defs>
</svg>
